<svg version="1.1" xmlns="http://www.w3.org/2000/svg" viewBox="0 0 994.6665954589844 433.5000534057617" width="994.6665954589844" height="433.5000534057617">
  <!-- svg-source:excalidraw -->
  
  <defs>
    <style>
      @font-face {
        font-family: "Virgil";
        src: url("https://excalidraw.com/Virgil.woff2");
      }
      @font-face {
        font-family: "Cascadia";
        src: url("https://excalidraw.com/Cascadia.woff2");
      }
    </style>
  </defs>
  <rect x="0" y="0" width="994.6665954589844" height="433.5000534057617" fill="#ffffff"></rect><g stroke-linecap="round" transform="translate(37.66668701171875 70.66667175292969) rotate(0 66.00001525878906 33.66667175292969)"><path d="M-0.15 -1.82 C40.07 0, 76.97 0.23, 130.92 -1.92 M-0.59 0.57 C36.05 -1.58, 72.16 0.1, 132.58 -0.25 M133.51 -1.01 C131.89 12.99, 131.29 26.3, 130.69 66.64 M131.82 -0.59 C131.97 22.96, 131.97 45.8, 131.88 66.87 M130.85 65.49 C81.86 69.14, 32.44 69.86, 0.09 66.01 M131.73 66.66 C95.21 66.26, 58.04 65.05, 0.96 67 M0.71 66 C-0.57 41.28, -1.73 15.94, 1.29 -0.06 M0.34 66.37 C0.77 40.17, 0.66 13.97, 0.63 0.45" stroke="#000000" stroke-width="1" fill="none"></path></g><g transform="translate(42.66668701171875 91.83334350585938) rotate(0 61 12.5)"><text x="61" y="17" font-family="Virgil, Segoe UI Emoji" font-size="20px" fill="#000000" text-anchor="middle" style="white-space: pre;" direction="ltr">data.csv</text></g><g stroke-linecap="round" transform="translate(233.6666717529297 71.33334350585938) rotate(0 66.00001525878906 33.66667175292969)"><path d="M-1.97 -0.55 C29.49 -0.84, 62.14 -1.29, 130.03 1.92 M-0.27 0.36 C34.48 -1.02, 70.4 -1.6, 132.59 0.65 M132.63 0.69 C130.68 21.22, 130.68 41, 130.1 68.6 M132.02 0.71 C132.8 24.02, 133.27 45.99, 132.28 66.53 M133.65 66.9 C102.51 66.78, 73.5 65.41, 1.42 69.11 M131.81 67.18 C84.25 68.81, 36.24 68.86, -0.67 66.5 M-0.29 67.51 C-1.75 52.16, 1.08 37.41, 1.36 1.86 M-0.19 67.14 C0.45 48.94, -1.25 29.43, -0.16 0.91" stroke="#000000" stroke-width="1" fill="none"></path></g><g transform="translate(238.6666717529297 92.50001525878906) rotate(0 61 12.5)"><text x="61" y="17" font-family="Virgil, Segoe UI Emoji" font-size="20px" fill="#000000" text-anchor="middle" style="white-space: pre;" direction="ltr">processing</text></g><g stroke-linecap="round" transform="translate(432.0000457763672 74) rotate(0 66.00001525878906 33.66667175292969)"><path d="M1.19 -0.05 C46.15 -0.7, 89.68 -0.69, 130.03 1.96 M-0.35 -0.96 C36.85 0.06, 71.62 1.22, 132.67 0.29 M131.38 1.11 C130.4 25.14, 132.73 51.11, 132.47 68.39 M132.83 0.17 C131.81 13.71, 131.73 28.45, 131.88 66.8 M130.85 67.56 C77.53 68.27, 28.26 65.81, 0.82 66.59 M132.68 66.95 C99.17 68.09, 65.35 67.73, -0.36 67.5 M-1.89 69.17 C-2.11 44.3, -1.41 20.62, -1.34 0.41 M-0.68 66.57 C-0.33 52, 0.07 35.34, -0.97 0.82" stroke="#000000" stroke-width="1" fill="none"></path></g><g transform="translate(437.0000457763672 82.66667175292969) rotate(0 61 25)"><text x="61" y="17" font-family="Virgil, Segoe UI Emoji" font-size="20px" fill="#000000" text-anchor="middle" style="white-space: pre;" direction="ltr">feature </text><text x="61" y="42" font-family="Virgil, Segoe UI Emoji" font-size="20px" fill="#000000" text-anchor="middle" style="white-space: pre;" direction="ltr">engineering</text></g><g stroke-linecap="round" transform="translate(628.9999847412109 75.33331298828125) rotate(0 66.00001525878906 33.66667175292969)"><path d="M-1.41 1.5 C39.71 0.38, 76.1 0.19, 130.65 0.17 M-0.72 0.23 C33.49 0.01, 66 -1.09, 131.74 0.43 M132.01 1.37 C131.09 19.34, 130.71 37.79, 130.94 68.26 M131.42 0.83 C131.9 19.01, 132.71 36.86, 131.78 66.43 M133.44 68.57 C96.08 67.28, 57.64 65.88, 0.2 69.06 M131.08 67.01 C103.39 66.51, 76.78 67.61, 0.95 67.21 M0.59 67 C-0.72 47.45, -1.5 30.99, 1.72 -0.01 M-0.33 68.09 C0.35 42.74, 1.03 18.35, -0.65 -0.42" stroke="#000000" stroke-width="1" fill="none"></path></g><g transform="translate(633.9999847412109 83.99998474121094) rotate(0 61 25)"><text x="61" y="17" font-family="Virgil, Segoe UI Emoji" font-size="20px" fill="#000000" text-anchor="middle" style="white-space: pre;" direction="ltr">model </text><text x="61" y="42" font-family="Virgil, Segoe UI Emoji" font-size="20px" fill="#000000" text-anchor="middle" style="white-space: pre;" direction="ltr">training</text></g><g stroke-linecap="round" transform="translate(820.6666717529297 17) rotate(0 66.00001525878906 33.66667175292969)"><path d="M-0.36 1.63 C38.4 -1.8, 71.12 -0.71, 133.54 -0.89 M0.27 0.13 C31.72 -2.16, 61.85 -0.9, 132.16 0.06 M130.36 1.93 C129.74 20.08, 133.03 41.51, 130.17 65.77 M132.38 0.29 C131.96 14.77, 131.51 28.99, 131.43 67.46 M131.37 68.75 C94 70.13, 54.04 67.91, 1.28 66.96 M131.65 66.46 C105.02 67.26, 77.92 66.07, 0.31 67.77 M0.33 67.39 C-1.13 49.32, -0.86 28.72, 1.2 0.34 M-0.77 67.02 C-0.17 40.64, -0.13 14.56, 0.11 0.48" stroke="#000000" stroke-width="1" fill="none"></path></g><g transform="translate(825.6666717529297 25.666671752929688) rotate(0 61 25)"><text x="61" y="17" font-family="Virgil, Segoe UI Emoji" font-size="20px" fill="#000000" text-anchor="middle" style="white-space: pre;" direction="ltr">neptune </text><text x="61" y="42" font-family="Virgil, Segoe UI Emoji" font-size="20px" fill="#000000" text-anchor="middle" style="white-space: pre;" direction="ltr">logging</text></g><g stroke-linecap="round" transform="translate(822.3332977294922 113.66665649414062) rotate(0 66.00001525878906 33.66667175292969)"><path d="M-1.92 -0.79 C44.46 1.86, 93.25 0.66, 133.34 0.37 M0.75 -0.95 C51.03 0.42, 103 0.39, 131.2 -0.19 M130.36 -0.58 C134.38 26.38, 133.14 52.45, 130.54 66.32 M132.17 0.24 C131.61 14.06, 131.06 29.31, 131.86 67.22 M130.26 68.31 C105.3 67.33, 78.25 66.81, -0.15 67.53 M131.67 66.67 C104.89 66.26, 78.03 66.08, -0.8 67.41 M0.11 65.97 C-1.6 48.91, -0.31 29.02, -1.92 1.32 M0.18 67.32 C-1.14 45.89, 0.57 22.45, -0.34 0.22" stroke="#000000" stroke-width="1" fill="none"></path></g><g transform="translate(827.3332977294922 134.8333282470703) rotate(0 61 12.5)"><text x="61" y="17" font-family="Virgil, Segoe UI Emoji" font-size="20px" fill="#000000" text-anchor="middle" style="white-space: pre;" direction="ltr">local export</text></g><g stroke-linecap="round" transform="translate(38.66670227050781 293.33331298828125) rotate(0 66.00001525878906 33.66667175292969)"><path d="M0.98 1.37 C43.8 1.19, 85.69 -1.43, 131.93 -0.34 M0.48 -0.83 C30.06 -1.45, 58 -1.54, 131.98 -0.5 M130.21 -0.38 C130.2 21.78, 131.88 44.15, 131.81 66.9 M132.63 0.74 C131.7 14.14, 131.24 29.74, 132.12 67.21 M131.81 66.79 C85.83 66.69, 42.83 66.88, -0.17 65.58 M132.97 67.9 C86.79 66.54, 39.57 66.07, -0.62 68.16 M1.15 68.8 C-1.19 44, 0.14 25.42, 0.47 0.54 M-0.56 67.35 C-0.28 52.07, -0.02 35.12, 0.11 0.33" stroke="#000000" stroke-width="1" fill="none"></path></g><g transform="translate(43.66670227050781 314.49998474121094) rotate(0 61 12.5)"><text x="61" y="17" font-family="Virgil, Segoe UI Emoji" font-size="20px" fill="#000000" text-anchor="middle" style="white-space: pre;" direction="ltr">data.csv</text></g><g stroke-linecap="round" transform="translate(10 10) rotate(0 289.9999694824219 97.00000762939453)"><path d="M0.72 0.54 C163.05 -3.12, 325.11 -2.68, 579.52 0.69 M578.87 0.32 C576.26 73.53, 578.76 145.19, 579.07 192.41 M579.99 194.47 C365.79 192.86, 153.2 193.23, -0.63 194.41 M1.02 194.71 C0.61 115.44, -2.15 40.3, -1.28 1.25" stroke="#c92a2a" stroke-width="1.5" fill="none" stroke-dasharray="8 9"></path></g><g transform="translate(28 19.666671752929688) rotate(0 110 12.5)"><text x="0" y="18" font-family="Virgil, Segoe UI Emoji" font-size="20px" fill="#000000" text-anchor="start" style="white-space: pre;" direction="ltr">Data modelling pipeline</text></g><g stroke-linecap="round" transform="translate(608.6667175292969 10.666664123535156) rotate(0 187.99993896484375 97.00000762939453)"><path d="M0.29 -0.55 C94.41 1.3, 187.34 0.4, 376.45 -0.02 M377.84 -1.52 C372.57 65.16, 373.38 134.18, 375.08 193.39 M376.98 193.4 C240.16 194.93, 103.8 195.44, 0.59 194.03 M-1.36 195.76 C-1.05 124.63, -0.99 52.4, -1.91 1.04" stroke="#364fc7" stroke-width="1.5" fill="none" stroke-dasharray="8 9"></path></g><g transform="translate(628.3333740234375 21.833343505859375) rotate(0 75.5 12.5)"><text x="0" y="18" font-family="Virgil, Segoe UI Emoji" font-size="20px" fill="#000000" text-anchor="start" style="white-space: pre;" direction="ltr">Training pipeline</text></g><g stroke-linecap="round" transform="translate(10.500030517578125 229.50003814697266) rotate(0 289.9999694824219 97.00000762939453)"><path d="M0.66 0.5 C187.27 -2.21, 375.55 -2.52, 579.85 0.11 M578.25 0.03 C578.2 56.13, 576.54 115.72, 581.49 193.78 M579.48 194.7 C432.44 191.93, 286.69 192.85, -0.32 194.4 M-1.63 195.33 C-0.66 149.54, -0.9 103.5, 0.56 -0.13" stroke="#e67700" stroke-width="1.5" fill="none" stroke-dasharray="8 9"></path></g><g transform="translate(30.16668701171875 247.1666717529297) rotate(0 83.5 12.5)"><text x="0" y="18" font-family="Virgil, Segoe UI Emoji" font-size="20px" fill="#000000" text-anchor="start" style="white-space: pre;" direction="ltr">Inference pipeline</text></g><g stroke-linecap="round" transform="translate(224.16661071777344 294.5000305175781) rotate(0 66.00001525878906 33.66667175292969)"><path d="M0.01 0.65 C37.71 1.13, 76.56 0.55, 133.44 1.11 M-0.48 -0.99 C43.13 1.42, 84.37 0.05, 132.04 -0.58 M132.03 -1.53 C131.7 14.97, 131.68 30.26, 130.63 68.26 M132.32 0.25 C132.94 21.09, 132.27 41.05, 131.21 67.2 M131.6 67.34 C88.63 67.98, 46.88 69.92, 0.35 67.91 M132.68 66.5 C81.04 69.09, 30.98 68.97, -0.04 67.48 M1.5 68.93 C2.21 43.88, -0.68 17.24, 1.72 1.39 M-0.95 67.4 C1.16 46.66, -0.07 24.96, -0.46 0.82" stroke="#000000" stroke-width="1" fill="none"></path></g><g transform="translate(229.16661071777344 315.6667022705078) rotate(0 61 12.5)"><text x="61" y="17" font-family="Virgil, Segoe UI Emoji" font-size="20px" fill="#000000" text-anchor="middle" style="white-space: pre;" direction="ltr">local export</text></g><g stroke-linecap="round" transform="translate(417.4999237060547 295.16668701171875) rotate(0 66.00001525878906 33.66667175292969)"><path d="M0.95 1.66 C41.37 1.79, 81.03 1.1, 131.47 -1.61 M0.5 0.36 C39.85 -0.5, 78.55 1.25, 132.22 0.48 M130.88 -1.94 C132.78 18.33, 132.15 30.95, 131.26 65.6 M132.27 0.25 C132.92 14.18, 133.54 28.25, 131.82 68.14 M133.44 69.31 C89.88 67.52, 45.18 68.36, 0.38 67.06 M131.25 66.54 C89.31 67.9, 46.77 67.72, -0.02 66.74 M0.7 68.7 C-1.31 49.47, -1.76 29.73, 1.98 0.08 M0.3 67.19 C0.03 43.33, 0.13 19.38, -0.49 0.53" stroke="#000000" stroke-width="1" fill="none"></path></g><g transform="translate(422.4999237060547 316.33335876464844) rotate(0 61 12.5)"><text x="61" y="17" font-family="Virgil, Segoe UI Emoji" font-size="20px" fill="#000000" text-anchor="middle" style="white-space: pre;" direction="ltr">predictions</text></g><g stroke-linecap="round"><g transform="translate(172.5 102.16667175292969) rotate(0 29.147126813065285 -1.6591357138007794)"><path d="M0.99 -0.42 C10.87 -0.99, 48.9 -2.62, 58.25 -2.9 M0.05 -1.68 C9.89 -2.18, 47.53 -1.97, 57.43 -1.84" stroke="#000000" stroke-width="1" fill="none"></path></g><g transform="translate(172.5 102.16667175292969) rotate(0 29.147126813065285 -1.6591357138007794)"><path d="M29.39 8.29 C34.28 4.06, 41.31 3.29, 55.56 -2.44 M30.03 7.6 C40.74 3.97, 52.01 0.03, 57.28 -1.03" stroke="#000000" stroke-width="1" fill="none"></path></g><g transform="translate(172.5 102.16667175292969) rotate(0 29.147126813065285 -1.6591357138007794)"><path d="M29.55 -11.56 C34.49 -11.62, 41.49 -8.23, 55.56 -2.44 M30.18 -12.25 C40.94 -8.03, 52.15 -4.13, 57.28 -1.03" stroke="#000000" stroke-width="1" fill="none"></path></g></g><g stroke-linecap="round"><g transform="translate(367.16668701171875 102.83335876464844) rotate(0 29.486786076799035 0.1890606799257455)"><path d="M-0.9 -0.93 C9.15 -1, 49.91 -0.26, 59.87 -0.17 M0.83 1.2 C10.74 1.3, 48.8 1.35, 58.86 1.28" stroke="#000000" stroke-width="1" fill="none"></path></g><g transform="translate(367.16668701171875 102.83335876464844) rotate(0 29.486786076799035 0.1890606799257455)"><path d="M29.14 11.39 C37.86 7.2, 45 8.24, 59.92 0.05 M30.46 11.96 C38.67 8.45, 48.09 4.63, 58.62 0.76" stroke="#000000" stroke-width="1" fill="none"></path></g><g transform="translate(367.16668701171875 102.83335876464844) rotate(0 29.486786076799035 0.1890606799257455)"><path d="M29.1 -9.13 C37.87 -7.88, 45.03 -1.39, 59.92 0.05 M30.42 -8.56 C38.58 -6.04, 48.02 -3.82, 58.62 0.76" stroke="#000000" stroke-width="1" fill="none"></path></g></g><g stroke-linecap="round"><g transform="translate(567 106.16667175292969) rotate(0 29.967912160931178 0.3901885115247268)"><path d="M0.2 0.18 C10.42 0.26, 50.93 1.65, 61.1 1.54 M-1.16 -0.77 C8.97 -0.5, 50.06 -0.28, 60.37 -0.12" stroke="#000000" stroke-width="1" fill="none"></path></g><g transform="translate(567 106.16667175292969) rotate(0 29.967912160931178 0.3901885115247268)"><path d="M32.38 10.57 C41.29 7.94, 45.73 3.04, 59.43 -0.41 M31.48 10.52 C42.42 5.55, 50.36 3.1, 60.91 0.73" stroke="#000000" stroke-width="1" fill="none"></path></g><g transform="translate(567 106.16667175292969) rotate(0 29.967912160931178 0.3901885115247268)"><path d="M32.59 -9.95 C41.62 -6.89, 46.01 -6.1, 59.43 -0.41 M31.68 -10 C42.6 -8.02, 50.47 -3.53, 60.91 0.73" stroke="#000000" stroke-width="1" fill="none"></path></g></g><g stroke-linecap="round"><g transform="translate(761.6666870117188 105.50001525878906) rotate(0 28.926544754542306 -29.259196574129163)"><path d="M1.14 -0.95 C10.45 -10.79, 46.16 -48.4, 55.48 -58.18 M0.28 1.17 C9.98 -9.06, 48.2 -49.76, 57.58 -59.69" stroke="#000000" stroke-width="1" fill="none"></path></g><g transform="translate(761.6666870117188 105.50001525878906) rotate(0 28.926544754542306 -29.259196574129163)"><path d="M44.15 -34.1 C50.6 -38.86, 51.4 -45.57, 57.82 -58.86 M46.51 -31.42 C51.18 -43.44, 55.94 -52.67, 58.16 -59.26" stroke="#000000" stroke-width="1" fill="none"></path></g><g transform="translate(761.6666870117188 105.50001525878906) rotate(0 28.926544754542306 -29.259196574129163)"><path d="M29.2 -48.17 C39.73 -49.33, 44.51 -52.31, 57.82 -58.86 M31.57 -45.49 C41.99 -52.11, 52.57 -55.86, 58.16 -59.26" stroke="#000000" stroke-width="1" fill="none"></path></g></g><g stroke-linecap="round"><g transform="translate(761.6666870117188 108.16667175292969) rotate(0 29.440768007813062 21.371551391500986)"><path d="M-0.5 0.03 C8.83 6.97, 47.51 35.09, 57.13 42.36 M1.44 -1 C11.04 6.06, 49.68 36.6, 59.38 43.74" stroke="#000000" stroke-width="1" fill="none"></path></g><g transform="translate(761.6666870117188 108.16667175292969) rotate(0 29.440768007813062 21.371551391500986)"><path d="M30.82 33.29 C41.66 37.08, 55.15 41.38, 58.53 43.51 M30.84 35.21 C36.14 35.77, 44.03 39.39, 58.41 43.58" stroke="#000000" stroke-width="1" fill="none"></path></g><g transform="translate(761.6666870117188 108.16667175292969) rotate(0 29.440768007813062 21.371551391500986)"><path d="M43.3 17 C49.29 27.2, 57.84 37.96, 58.53 43.51 M43.32 18.92 C46.06 23.05, 51.24 30.21, 58.41 43.58" stroke="#000000" stroke-width="1" fill="none"></path></g></g><g stroke-linecap="round"><g transform="translate(821 152.1666717529297) rotate(0 -269.67145198918877 72.12913030730562)"><path d="M0 0.6 C-89.72 24.74, -449.66 120.71, -539.34 144.4 M-1.46 -0.14 C-90.7 23.74, -447.46 118.85, -536.99 142.83" stroke="#000000" stroke-width="1" fill="none"></path></g><g transform="translate(821 152.1666717529297) rotate(0 -269.67145198918877 72.12913030730562)"><path d="M-511.4 124.51 C-516 130.27, -524.1 131.83, -537.9 141.74 M-513.29 124.98 C-521.47 131.29, -531.4 138.51, -537.7 142.08" stroke="#000000" stroke-width="1" fill="none"></path></g><g transform="translate(821 152.1666717529297) rotate(0 -269.67145198918877 72.12913030730562)"><path d="M-506.11 144.34 C-511.77 145.82, -521.01 143.11, -537.9 141.74 M-507.99 144.8 C-518.01 143.79, -529.9 143.69, -537.7 142.08" stroke="#000000" stroke-width="1" fill="none"></path></g></g><g stroke-linecap="round"><g transform="translate(170.16668701171875 326.83335876464844) rotate(0 25.428551958240547 -0.6914803028575989)"><path d="M-0.09 -0.46 C8.1 -0.6, 41.69 0.45, 50.06 0.36 M-1.59 -1.75 C6.91 -1.69, 44.01 -1.54, 52.45 -1.23" stroke="#000000" stroke-width="1" fill="none"></path></g><g transform="translate(170.16668701171875 326.83335876464844) rotate(0 25.428551958240547 -0.6914803028575989)"><path d="M27.73 6 C39.22 2.94, 46.07 1.12, 52.42 -2.51 M28.61 6.66 C36.06 4.94, 41.77 3.17, 52.07 -0.74" stroke="#000000" stroke-width="1" fill="none"></path></g><g transform="translate(170.16668701171875 326.83335876464844) rotate(0 25.428551958240547 -0.6914803028575989)"><path d="M28.03 -11.32 C39.58 -7.81, 46.32 -3.04, 52.42 -2.51 M28.91 -10.67 C36.15 -7.31, 41.77 -4, 52.07 -0.74" stroke="#000000" stroke-width="1" fill="none"></path></g></g><g stroke-linecap="round"><g transform="translate(354.8333740234375 326.83335876464844) rotate(0 30.955069423951215 1.671140216458582)"><path d="M0.31 0.97 C10.47 1.48, 50.54 2.8, 60.58 2.91 M-0.99 0.43 C9.6 0.58, 52.22 0.58, 62.9 0.92" stroke="#000000" stroke-width="1" fill="none"></path></g><g transform="translate(354.8333740234375 326.83335876464844) rotate(0 30.955069423951215 1.671140216458582)"><path d="M36.18 9.53 C42.54 6.8, 48.02 6.23, 64.51 1.05 M33.96 11 C43.24 7.55, 52.62 3.93, 62.99 1.86" stroke="#000000" stroke-width="1" fill="none"></path></g><g transform="translate(354.8333740234375 326.83335876464844) rotate(0 30.955069423951215 1.671140216458582)"><path d="M36.46 -10.99 C42.72 -8.25, 48.12 -3.34, 64.51 1.05 M34.24 -9.51 C43.44 -6.45, 52.72 -3.55, 62.99 1.86" stroke="#000000" stroke-width="1" fill="none"></path></g></g></svg>